<svg width="24" height="24" viewBox="0 0 24 24" fill="none" xmlns="http://www.w3.org/2000/svg">
<g id="arrow-ios-forward-outline" clip-path="url(#clip0_16_536)">
<g id="Layer 2">
<g id="arrow-ios-forward">
<path id="Vector" d="M10.0001 19C9.7664 19.0005 9.53996 18.9191 9.36005 18.77C9.25879 18.6861 9.17509 18.583 9.11374 18.4666C9.05239 18.3503 9.01459 18.223 9.00251 18.092C8.99044 17.961 9.00432 17.8289 9.04337 17.7033C9.08241 17.5777 9.14585 17.4611 9.23005 17.36L13.7101 12L9.39005 6.63C9.30699 6.52771 9.24495 6.41002 9.20752 6.28368C9.17009 6.15734 9.158 6.02485 9.17194 5.89382C9.18587 5.76279 9.22557 5.63581 9.28875 5.52017C9.35192 5.40454 9.43732 5.30252 9.54005 5.22C9.64352 5.12897 9.76468 5.0603 9.89595 5.01831C10.0272 4.97632 10.1657 4.96192 10.3028 4.976C10.4399 4.99009 10.5726 5.03236 10.6926 5.10016C10.8126 5.16796 10.9173 5.25983 11.0001 5.37L15.8301 11.37C15.9771 11.5489 16.0575 11.7734 16.0575 12.005C16.0575 12.2366 15.9771 12.4611 15.8301 12.64L10.8301 18.64C10.7297 18.761 10.6023 18.8567 10.4581 18.9192C10.3139 18.9818 10.157 19.0095 10.0001 19Z" fill="black"/>
</g>
</g>
</g>
<defs>
<clipPath id="clip0_16_536">
<rect width="24" height="24" fill="white"/>
</clipPath>
</defs>
</svg>
