<svg width="24" height="24" viewBox="0 0 24 24" fill="none" xmlns="http://www.w3.org/2000/svg">
<g id="bell-outline" clip-path="url(#clip0_16_541)">
<g id="Layer 2">
<g id="bell">
<path id="Vector" d="M20.52 15.21L18.72 13.4V8.93999C18.7439 7.28381 18.1678 5.6749 17.0981 4.41032C16.0283 3.14575 14.5372 2.31092 12.9 2.05999C11.9498 1.93485 10.9838 2.0138 10.0666 2.29156C9.1493 2.56932 8.30182 3.03951 7.58068 3.67075C6.85953 4.30199 6.2813 5.07976 5.88456 5.95218C5.48782 6.8246 5.2817 7.7716 5.27995 8.72999V13.4L3.47995 15.21C3.25386 15.4399 3.10053 15.7313 3.03915 16.0478C2.97777 16.3643 3.01105 16.6919 3.13483 16.9896C3.25861 17.2873 3.4674 17.542 3.7351 17.7217C4.0028 17.9014 4.31753 17.9982 4.63995 18H7.99995V18.34C8.04666 19.3552 8.4939 20.3105 9.24368 20.9965C9.99345 21.6826 10.9846 22.0434 12 22C13.0153 22.0434 14.0065 21.6826 14.7562 20.9965C15.506 20.3105 15.9532 19.3552 16 18.34V18H19.36C19.6824 17.9982 19.9971 17.9014 20.2648 17.7217C20.5325 17.542 20.7413 17.2873 20.8651 16.9896C20.9889 16.6919 21.0221 16.3643 20.9608 16.0478C20.8994 15.7313 20.746 15.4399 20.52 15.21ZM14 18.34C13.9445 18.821 13.7056 19.262 13.333 19.5713C12.9605 19.8805 12.4829 20.0341 12 20C11.517 20.0341 11.0395 19.8805 10.6669 19.5713C10.2943 19.262 10.0554 18.821 9.99995 18.34V18H14V18.34ZM5.50995 16L6.68995 14.82C6.87712 14.6339 7.02561 14.4127 7.12687 14.169C7.22813 13.9252 7.28016 13.6639 7.27995 13.4V8.72999C7.2805 8.05539 7.42533 7.38871 7.70474 6.7747C7.98416 6.16068 8.39167 5.61354 8.89995 5.16999C9.40137 4.71567 9.99553 4.37574 10.6413 4.17372C11.2871 3.9717 11.969 3.91242 12.64 3.99999C13.7964 4.18776 14.8461 4.787 15.5958 5.68737C16.3455 6.58773 16.7447 7.72862 16.72 8.89999V13.4C16.7184 13.6632 16.7689 13.9241 16.8684 14.1678C16.9679 14.4115 17.1146 14.6331 17.3 14.82L18.49 16H5.50995Z" fill="black"/>
</g>
</g>
</g>
<defs>
<clipPath id="clip0_16_541">
<rect width="24" height="24" fill="white"/>
</clipPath>
</defs>
</svg>
