<svg width="24" height="24" viewBox="0 0 24 24" fill="none" xmlns="http://www.w3.org/2000/svg">
<g id="Bookmark">
<g id="Iconly/Light-Outline/Bookmark">
<g id="Bookmark_2">
<path id="Combined-Shape" fill-rule="evenodd" clip-rule="evenodd" d="M14.7008 2C18.0928 2 20.0388 3.679 20.0388 6.604V21.14C20.0388 21.75 19.7248 22.299 19.1968 22.606C18.6708 22.914 18.0368 22.92 17.5048 22.62L11.5448 19.253L5.5298 22.627C5.2698 22.773 4.9848 22.847 4.6988 22.847C4.4038 22.847 4.1088 22.768 3.8408 22.61C3.3138 22.303 2.9998 21.754 2.9998 21.145V6.421C2.9998 3.611 4.9468 2 8.3418 2H14.7008ZM14.7008 3.5H8.3418C5.7928 3.5 4.4998 4.482 4.4998 6.421V21.145C4.4998 21.239 4.5538 21.29 4.5988 21.316C4.6438 21.344 4.7148 21.364 4.7968 21.318L11.1788 17.738C11.4068 17.611 11.6858 17.61 11.9148 17.739L18.2418 21.313C18.3248 21.361 18.3958 21.339 18.4408 21.312C18.4858 21.285 18.5388 21.234 18.5388 21.14L18.5384 6.49004C18.5309 5.62937 18.3643 3.5 14.7008 3.5ZM15.1396 8.7285C15.5536 8.7285 15.8896 9.0645 15.8896 9.4785C15.8896 9.8925 15.5536 10.2285 15.1396 10.2285H7.8216C7.4076 10.2285 7.0716 9.8925 7.0716 9.4785C7.0716 9.0645 7.4076 8.7285 7.8216 8.7285H15.1396Z" fill="#9CA4AB"/>
</g>
</g>
</g>
</svg>
