<svg width="25" height="24" viewBox="0 0 25 24" fill="none" xmlns="http://www.w3.org/2000/svg">
<g id="google-symbol 1" clip-path="url(#clip0_110_983)">
<g id="Group">
<path id="Vector" d="M24.3072 10.141C24.4139 10.141 24.5003 10.2275 24.5003 10.3342V12.3623C24.5003 13.1214 24.4298 13.8636 24.2946 14.5836C23.2485 20.1762 18.3215 24.4027 12.4157 24.362C5.78907 24.3163 0.485725 18.962 0.500397 12.3353C0.514975 5.7204 5.88207 0.362305 12.5003 0.362305C15.7428 0.362305 18.6848 1.64865 20.8448 3.73815C20.9228 3.81357 20.9248 3.93788 20.848 4.01457L17.9788 6.88384C17.9049 6.95771 17.7856 6.95963 17.7098 6.88759C16.3542 5.59716 14.52 4.80493 12.5003 4.80493C8.32983 4.80493 4.97147 8.13943 4.94316 12.3099C4.91471 16.5076 8.30921 19.9196 12.5003 19.9196C15.9009 19.9196 18.7771 17.6732 19.7255 14.5836H12.6935C12.5868 14.5836 12.5003 14.4971 12.5003 14.3904V10.3341C12.5003 10.2274 12.5868 10.1409 12.6935 10.1409H24.3072V10.141Z" fill="#2196F3"/>
<g id="Group_2">
<path id="Vector_2" d="M24.3066 10.141H22.8579C22.9646 10.141 23.0511 10.2275 23.0511 10.3342V12.3623C23.0511 13.1214 22.9806 13.8636 22.8454 14.5836C21.8473 19.919 17.3171 24.011 11.7747 24.3406C11.9867 24.3532 12.2002 24.3605 12.4152 24.362C18.3209 24.4027 23.2479 20.1762 24.294 14.5836C24.4293 13.8636 24.4998 13.1214 24.4998 12.3623V10.3341C24.4998 10.2275 24.4133 10.141 24.3066 10.141Z" fill="#1E88E5"/>
</g>
<path id="Vector_3" d="M5.63608 9.1974L1.99164 6.56415C4.03623 2.86613 7.97617 0.362305 12.5005 0.362305C15.7429 0.362305 18.6849 1.64865 20.8449 3.73815C20.9229 3.81357 20.9249 3.93788 20.8481 4.01457L17.9789 6.88384C17.9051 6.95757 17.7858 6.95987 17.7103 6.88796C16.3546 5.5973 14.5202 4.80498 12.5005 4.80498C9.45676 4.80498 6.83317 6.60423 5.63608 9.1974Z" fill="#F44336"/>
<path id="Vector_4" d="M4.58328 8.43719L5.63539 9.19736C6.72805 6.83045 9.00936 5.12579 11.7136 4.84618C11.7339 4.84398 11.7535 4.84131 11.7742 4.83934C11.5362 4.81674 11.295 4.80493 11.0511 4.80493C8.30155 4.80493 5.9053 6.25445 4.58328 8.43719Z" fill="#E53935"/>
<path id="Vector_5" d="M19.3958 3.73815C19.4738 3.81357 19.4758 3.93788 19.3991 4.01462L17.0702 6.34351C17.2933 6.5132 17.5069 6.6947 17.7096 6.88763C17.7852 6.95968 17.9046 6.95776 17.9785 6.88388L20.8478 4.01462C20.9245 3.93788 20.9224 3.81362 20.8445 3.73815C18.6845 1.64865 15.7426 0.362305 12.5001 0.362305C12.2568 0.362305 12.0154 0.370414 11.7756 0.384711C14.7306 0.560727 17.3979 1.8054 19.3958 3.73815Z" fill="#E53935"/>
<path id="Vector_6" d="M21.3023 20.5174C19.1109 22.8822 15.9779 24.3623 12.4996 24.3623C7.80147 24.3623 3.73403 21.6624 1.76425 17.7292L5.48495 15.1794C6.60147 17.9576 9.32163 19.9196 12.4996 19.9196C14.4939 19.9196 16.3077 19.1469 17.6579 17.8846L21.3023 20.5174Z" fill="#4CAF50"/>
<path id="Vector_7" d="M5.48525 15.1796L4.38809 15.9314C5.66239 18.3053 8.16828 19.9197 11.0511 19.9197C11.2949 19.9197 11.5359 19.9077 11.7738 19.8852C8.91214 19.6123 6.51565 17.7436 5.48525 15.1796Z" fill="#43A047"/>
<path id="Vector_8" d="M12.5001 24.3624C15.9784 24.3624 19.1114 22.8823 21.3028 20.5175L20.4102 19.8727C18.3525 22.4335 15.2658 24.1323 11.7775 24.3405C12.0166 24.3548 12.2574 24.3624 12.5001 24.3624Z" fill="#43A047"/>
<path id="Vector_9" d="M4.94267 12.3624C4.94267 13.3581 5.13533 14.3089 5.48544 15.1796L1.76469 17.7293C0.955391 16.1145 0.5 14.2916 0.5 12.3624C0.5 10.2594 1.04084 8.28283 1.99119 6.56421L5.63562 9.19746C5.19088 10.1598 4.94267 11.2324 4.94267 12.3624Z" fill="#FFC107"/>
<path id="Vector_10" d="M4.38837 15.9314L5.48552 15.1796C5.13542 14.3089 4.94276 13.3581 4.94276 12.3623C4.94276 11.2324 5.19096 10.1598 5.63571 9.19743L4.5836 8.43726C3.9004 9.5653 3.50388 10.889 3.49423 12.3099C3.48532 13.6203 3.81002 14.8541 4.38837 15.9314Z" fill="#FFB300"/>
</g>
</g>
<defs>
<clipPath id="clip0_110_983">
<rect width="24" height="24" fill="white" transform="translate(0.5 0.362305)"/>
</clipPath>
</defs>
</svg>
