<svg width="25" height="24" viewBox="0 0 25 24" fill="none" xmlns="http://www.w3.org/2000/svg">
<g id="Icon - Apple" clip-path="url(#clip0_110_999)">
<g id="Group">
<g id="Group_2">
<path id="Vector" d="M19.0763 13.453C18.4161 10.1305 21.5698 8.18184 21.5698 8.18184C21.5698 8.18184 20.3411 6.4042 18.2761 5.94688C16.2121 5.48857 15.1791 6.06119 14.1481 6.49067C13.1162 6.92119 12.6012 6.92119 12.6012 6.92119C11.112 6.92119 10.0233 5.34437 7.18588 6.06224C5.2311 6.55555 3.17328 8.81214 2.80148 11.5054C2.42968 14.1997 3.23201 17.6376 4.77894 20.302C6.32587 22.9685 7.90169 23.9706 9.02015 23.9994C10.1386 24.0272 11.2551 23.1981 12.6012 22.9963C13.9484 22.7964 14.7774 23.4845 16.0988 23.8563C17.415 24.2271 17.8765 23.8831 19.3925 22.5936C20.9126 21.3041 22.2886 17.6057 22.2886 17.6057C22.2886 17.6057 19.7365 16.7776 19.0763 13.453Z" fill="#171725"/>
<path id="Vector_2" d="M16.1534 3.79731C17.6158 2.30705 17.1205 0 17.1205 0C17.1205 0 15.0668 0.360484 13.6908 1.79206C12.3159 3.22469 12.5435 5.48743 12.5435 5.48743C12.5435 5.48743 14.6909 5.28661 16.1534 3.79731Z" fill="#171725"/>
</g>
</g>
</g>
<defs>
<clipPath id="clip0_110_999">
<rect width="24" height="24" fill="white" transform="translate(0.5)"/>
</clipPath>
</defs>
</svg>
