<svg width="14" height="18" viewBox="0 0 14 18" fill="none" xmlns="http://www.w3.org/2000/svg">
<g id="Group">
<path id="Vector" d="M11.1667 8.16667H2.83335C1.91288 8.16667 1.16669 8.91286 1.16669 9.83334V14.8333C1.16669 15.7538 1.91288 16.5 2.83335 16.5H11.1667C12.0872 16.5 12.8334 15.7538 12.8334 14.8333V9.83334C12.8334 8.91286 12.0872 8.16667 11.1667 8.16667Z" stroke="#94A3B8" stroke-width="1.5" stroke-linecap="round" stroke-linejoin="round"/>
<path id="Vector_2" d="M7.00002 13.1667C7.46026 13.1667 7.83335 12.7936 7.83335 12.3333C7.83335 11.8731 7.46026 11.5 7.00002 11.5C6.53978 11.5 6.16669 11.8731 6.16669 12.3333C6.16669 12.7936 6.53978 13.1667 7.00002 13.1667Z" stroke="#94A3B8" stroke-width="2" stroke-linecap="round" stroke-linejoin="round"/>
<path id="Vector_3" d="M3.66669 8.16667V4.83333C3.66669 3.94928 4.01788 3.10143 4.643 2.47631C5.26812 1.85119 6.11597 1.5 7.00002 1.5C7.88408 1.5 8.73192 1.85119 9.35704 2.47631C9.98216 3.10143 10.3334 3.94928 10.3334 4.83333V8.16667" stroke="#94A3B8" stroke-width="1.5" stroke-linecap="round" stroke-linejoin="round"/>
</g>
</svg>
